{
  "accessors": [
    {
      "bufferView": 2,
      "componentType": 5126,
      "count": 7554,
      "max": [
        8.309755325317383,
        8.487907409667969,
        46.335182189941406
      ],
      "min": [
        -8.308496475219727,
        -8.484500885009766,
        0.00023610850621480495
      ],
      "type": "VEC3"
    },
    {
      "bufferView": 2,
      "byteOffset": 90648,
      "componentType": 5126,
      "count": 7554,
      "max": [
        0.9999857544898987,
        0.9998957514762878,
        1.0
      ],
      "min": [
        -0.9999663233757019,
        -0.9999229311943054,
        -1.0
      ],
      "type": "VEC3"
    },
    {
      "bufferView": 1,
      "componentType": 5126,
      "count": 7554,
      "max": [
        1.0,
        1.0
      ],
      "min": [
        0.0,
        0.0
      ],
      "type": "VEC2"
    },
    {
      "bufferView": 0,
      "componentType": 5125,
      "count": 45312,
      "type": "SCALAR"
    },
    {
      "bufferView": 2,
      "byteOffset": 181296,
      "componentType": 5126,
      "count": 6280,
      "max": [
        30.678186416625977,
        43.4080810546875,
        88.5815658569336
      ],
      "min": [
        -33.138221740722656,
        -24.01325798034668,
        -0.5817696452140808
      ],
      "type": "VEC3"
    },
    {
      "bufferView": 2,
      "byteOffset": 256656,
      "componentType": 5126,
      "count": 6280,
      "max": [
        0.9975713491439819,
        0.9999141693115234,
        0.9995754361152649
      ],
      "min": [
        -0.999584972858429,
        -0.9989047646522522,
        -0.9987568259239197
      ],
      "type": "VEC3"
    },
    {
      "bufferView": 1,
      "byteOffset": 60432,
      "componentType": 5126,
      "count": 6280,
      "max": [
        1.0,
        8.0
      ],
      "min": [
        0.0,
        0.0
      ],
      "type": "VEC2"
    },
    {
      "bufferView": 0,
      "byteOffset": 181248,
      "componentType": 5125,
      "count": 26844,
      "type": "SCALAR"
    },
    {
      "bufferView": 2,
      "byteOffset": 332016,
      "componentType": 5126,
      "count": 38205,
      "max": [
        31.806365966796875,
        44.07062530517578,
        88.92537689208984
      ],
      "min": [
        -33.55554962158203,
        -24.607351303100586,
        44.104339599609375
      ],
      "type": "VEC3"
    },
    {
      "bufferView": 2,
      "byteOffset": 790476,
      "componentType": 5126,
      "count": 38205,
      "max": [
        0.9991573095321655,
        0.9999638199806213,
        0.9999943375587463
      ],
      "min": [
        -0.9999576807022095,
        -0.9999603629112244,
        -0.9999603033065796
      ],
      "type": "VEC3"
    },
    {
      "bufferView": 1,
      "byteOffset": 110672,
      "componentType": 5126,
      "count": 38205,
      "max": [
        0.9995004534721375,
        0.9995004534721375
      ],
      "min": [
        0.0004995465278625488,
        -0.051686644554138184
      ],
      "type": "VEC2"
    },
    {
      "bufferView": 0,
      "byteOffset": 288624,
      "componentType": 5125,
      "count": 57240,
      "type": "SCALAR"
    },
    {
      "bufferView": 2,
      "byteOffset": 1248936,
      "componentType": 5126,
      "count": 22365,
      "max": [
        35.08446502685547,
        47.60981750488281,
        93.45054626464844
      ],
      "min": [
        -38.23514175415039,
        -29.753231048583984,
        39.222557067871094
      ],
      "type": "VEC3"
    },
    {
      "bufferView": 2,
      "byteOffset": 1517316,
      "componentType": 5126,
      "count": 22365,
      "max": [
        0.9995710253715515,
        0.9999313354492188,
        0.9999656081199646
      ],
      "min": [
        -0.9999955892562866,
        -0.9999861121177673,
        -0.9997464418411255
      ],
      "type": "VEC3"
    },
    {
      "bufferView": 1,
      "byteOffset": 416312,
      "componentType": 5126,
      "count": 22365,
      "max": [
        1.0346046686172485,
        0.9768361449241638
      ],
      "min": [
        0.05667748674750328,
        -0.0023329555988311768
      ],
      "type": "VEC2"
    },
    {
      "bufferView": 0,
      "byteOffset": 517584,
      "componentType": 5125,
      "count": 120960,
      "type": "SCALAR"
    }
  ],
  "asset": {
    "extras": {
      "author": "Gajk.Mv (https://sketchfab.com/Gajk.Mv)",
      "license": "CC-BY-4.0 (http://creativecommons.org/licenses/by/4.0/)",
      "source": "https://sketchfab.com/3d-models/flowers-with-the-vase-0f58352d377840cdbeef0bd71b24aff6",
      "title": "flowers with the vase"
    },
    "generator": "Sketchfab-12.67.0",
    "version": "2.0"
  },
  "bufferViews": [
    {
      "buffer": 0,
      "byteLength": 1001424,
      "name": "floatBufferViews",
      "target": 34963
    },
    {
      "buffer": 0,
      "byteLength": 595232,
      "byteOffset": 1001424,
      "byteStride": 8,
      "name": "floatBufferViews",
      "target": 34962
    },
    {
      "buffer": 0,
      "byteLength": 1785696,
      "byteOffset": 1596656,
      "byteStride": 12,
      "name": "floatBufferViews",
      "target": 34962
    }
  ],
  "buffers": [
    {
      "byteLength": 3382352,
      "uri": "scene.bin"
    }
  ],
  "extensionsUsed": [
    "KHR_materials_clearcoat"
  ],
  "images": [
    {
      "uri": "textures/Material_60_baseColor.png"
    },
    {
      "uri": "textures/01_-_Default_baseColor.jpeg"
    },
    {
      "uri": "textures/02_-_Default_baseColor.jpeg"
    }
  ],
  "materials": [
    {
      "doubleSided": true,
      "name": "Material_34",
      "pbrMetallicRoughness": {
        "baseColorFactor": [
          0.0,
          0.0,
          0.0,
          1.0
        ],
        "metallicFactor": 0.7761051829268293,
        "roughnessFactor": 0.0
      }
    },
    {
      "doubleSided": true,
      "name": "Material_60",
      "pbrMetallicRoughness": {
        "baseColorTexture": {
          "index": 0
        },
        "metallicFactor": 0.11756859756097561,
        "roughnessFactor": 0.4651295731707317
      }
    },
    {
      "doubleSided": true,
      "name": "01_-_Default",
      "pbrMetallicRoughness": {
        "baseColorTexture": {
          "index": 1
        },
        "metallicFactor": 0.0,
        "roughnessFactor": 0.6
      }
    },
    {
      "alphaMode": "BLEND",
      "doubleSided": true,
      "extensions": {
        "KHR_materials_clearcoat": {
          "clearcoatFactor": 1.0,
          "clearcoatRoughnessFactor": 0.24561737804878048
        }
      },
      "name": "02_-_Default",
      "pbrMetallicRoughness": {
        "baseColorFactor": [
          1.0,
          1.0,
          1.0,
          0.9468368902439024
        ],
        "baseColorTexture": {
          "index": 2
        },
        "metallicFactor": 0.0,
        "roughnessFactor": 0.2761051829268293
      }
    }
  ],
  "meshes": [
    {
      "name": "Plane01_Material #34_0",
      "primitives": [
        {
          "attributes": {
            "NORMAL": 1,
            "POSITION": 0,
            "TEXCOORD_0": 2
          },
          "indices": 3,
          "material": 0,
          "mode": 4
        }
      ]
    },
    {
      "name": "GrowFX01_Material #60_0",
      "primitives": [
        {
          "attributes": {
            "NORMAL": 5,
            "POSITION": 4,
            "TEXCOORD_0": 6
          },
          "indices": 7,
          "material": 1,
          "mode": 4
        }
      ]
    },
    {
      "name": "GrowFX01_01 - Default_0",
      "primitives": [
        {
          "attributes": {
            "NORMAL": 9,
            "POSITION": 8,
            "TEXCOORD_0": 10
          },
          "indices": 11,
          "material": 2,
          "mode": 4
        }
      ]
    },
    {
      "name": "GrowFX01_02 - Default_0",
      "primitives": [
        {
          "attributes": {
            "NORMAL": 13,
            "POSITION": 12,
            "TEXCOORD_0": 14
          },
          "indices": 15,
          "material": 3,
          "mode": 4
        }
      ]
    }
  ],
  "nodes": [
    {
      "children": [
        1
      ],
      "matrix": [
        0.01263056043535471,
        0.0,
        0.0,
        0.0,
        0.0,
        2.804547801850068e-18,
        -0.01263056043535471,
        0.0,
        0.0,
        0.01263056043535471,
        2.804547801850068e-18,
        0.0,
        -9.038582902576309e-06,
        -7.1054265007938534e-15,
        -3.858716354443459e-06,
        1.0
      ],
      "name": "Sketchfab_model"
    },
    {
      "children": [
        2
      ],
      "matrix": [
        1.0,
        0.0,
        0.0,
        0.0,
        0.0,
        0.0,
        1.0,
        0.0,
        0.0,
        -1.0,
        0.0,
        0.0,
        0.0,
        0.0,
        0.0,
        1.0
      ],
      "name": "flower.FBX"
    },
    {
      "children": [
        3,
        5
      ],
      "name": "RootNode"
    },
    {
      "children": [
        4
      ],
      "matrix": [
        0.9999999999998863,
        -2.6469779601696886e-23,
        4.768371582030708e-07,
        0.0,
        4.768371582030708e-07,
        2.220446049250313e-16,
        -0.9999999999998863,
        0.0,
        -2.6469779601696886e-23,
        1.0,
        2.220446049250313e-16,
        0.0,
        -0.0007710158824920654,
        0.0008476185612380505,
        -0.0001257958065252751,
        1.0
      ],
      "name": "Plane01"
    },
    {
      "mesh": 0,
      "name": "Plane01_Material #34_0"
    },
    {
      "children": [
        6,
        7,
        8
      ],
      "matrix": [
        0.9999999999998863,
        -2.6469779601696886e-23,
        4.768371582030708e-07,
        0.0,
        4.768371582030708e-07,
        2.220446049250313e-16,
        -0.9999999999998863,
        0.0,
        -2.6469779601696886e-23,
        1.0,
        2.220446049250313e-16,
        0.0,
        -0.0007710158824920654,
        2.6405417919158936,
        -0.0001257958065252751,
        1.0
      ],
      "name": "GrowFX01"
    },
    {
      "mesh": 1,
      "name": "GrowFX01_Material #60_0"
    },
    {
      "mesh": 2,
      "name": "GrowFX01_01 - Default_0"
    },
    {
      "mesh": 3,
      "name": "GrowFX01_02 - Default_0"
    }
  ],
  "samplers": [
    {
      "magFilter": 9729,
      "minFilter": 9987,
      "wrapS": 10497,
      "wrapT": 10497
    }
  ],
  "scene": 0,
  "scenes": [
    {
      "name": "Sketchfab_Scene",
      "nodes": [
        0
      ]
    }
  ],
  "textures": [
    {
      "sampler": 0,
      "source": 0
    },
    {
      "sampler": 0,
      "source": 1
    },
    {
      "sampler": 0,
      "source": 2
    }
  ]
}
